<?xml version="1.0" encoding="UTF-8"?>
<svg xmlns="http://www.w3.org/2000/svg" xmlns:xlink="http://www.w3.org/1999/xlink" width="22px" height="25px" viewBox="0 0 22 25" version="1.1">
<g id="surface1">
<path style=" stroke:none;fill-rule:nonzero;fill:rgb(0%,0%,0%);fill-opacity:1;" d="M 0 70.324219 L 0 53.234375 C 0.328125 47.050781 2.796875 41.84375 7.40625 37.609375 C 12.015625 33.378906 17.449219 31.265625 23.707031 31.265625 L 47.410156 31.265625 L 47.410156 23.453125 C 47.410156 16.941406 49.714844 11.410156 54.324219 6.851562 C 58.933594 2.292969 64.53125 0.015625 71.117188 0.015625 L 150.132812 0.015625 C 156.71875 0.015625 162.316406 2.292969 166.925781 6.851562 C 171.535156 11.410156 173.839844 16.941406 173.839844 23.453125 L 173.839844 31.265625 L 197.542969 31.265625 C 203.800781 31.265625 209.234375 33.378906 213.84375 37.609375 C 218.453125 41.84375 220.921875 47.050781 221.25 53.234375 L 221.25 70.324219 C 221.25 74.554688 219.6875 78.21875 216.558594 81.308594 C 213.429688 84.402344 209.726562 85.949219 205.445312 85.949219 L 205.445312 218.753906 C 205.445312 227.539062 202.402344 234.945312 196.308594 240.96875 C 190.21875 246.988281 182.730469 250 173.839844 250 L 47.410156 250 C 38.519531 250 31.03125 246.988281 24.941406 240.96875 C 18.847656 234.945312 15.804688 227.539062 15.804688 218.753906 L 15.804688 85.949219 C 11.523438 85.949219 7.820312 84.402344 4.691406 81.308594 C 1.5625 78.21875 0 74.554688 0 70.324219 Z M 15.804688 70.324219 L 205.445312 70.324219 L 205.445312 54.699219 C 205.445312 52.421875 204.707031 50.550781 203.222656 49.085938 C 201.742188 47.621094 199.847656 46.886719 197.542969 46.886719 L 23.707031 46.886719 C 21.402344 46.886719 19.507812 47.621094 18.027344 49.085938 C 16.542969 50.550781 15.804688 52.421875 15.804688 54.699219 Z M 31.605469 218.753906 C 31.605469 222.984375 33.171875 226.644531 36.296875 229.738281 C 39.425781 232.832031 43.128906 234.375 47.410156 234.375 L 173.839844 234.375 C 178.121094 234.375 181.824219 232.828125 184.953125 229.738281 C 188.078125 226.644531 189.644531 222.984375 189.644531 218.753906 L 189.644531 85.949219 L 31.605469 85.949219 Z M 47.410156 210.941406 L 47.410156 109.382812 C 47.410156 107.105469 48.152344 105.234375 49.632812 103.769531 C 51.113281 102.304688 53.007812 101.570312 55.3125 101.570312 L 71.117188 101.570312 C 73.421875 101.570312 75.3125 102.304688 76.796875 103.769531 C 78.277344 105.234375 79.019531 107.105469 79.019531 109.382812 L 79.019531 210.941406 C 79.019531 213.21875 78.277344 215.089844 76.796875 216.554688 C 75.3125 218.019531 73.421875 218.753906 71.117188 218.753906 L 55.3125 218.753906 C 53.007812 218.753906 51.113281 218.019531 49.632812 216.554688 C 48.152344 215.089844 47.410156 213.21875 47.410156 210.941406 Z M 55.3125 210.941406 L 71.117188 210.941406 L 71.117188 109.382812 L 55.3125 109.382812 Z M 63.214844 31.265625 L 158.035156 31.265625 L 158.035156 23.453125 C 158.035156 21.171875 157.296875 19.300781 155.8125 17.835938 C 154.332031 16.371094 152.4375 15.640625 150.132812 15.640625 L 71.117188 15.640625 C 68.8125 15.640625 66.917969 16.371094 65.4375 17.835938 C 63.953125 19.300781 63.214844 21.171875 63.214844 23.453125 Z M 94.820312 210.941406 L 94.820312 109.382812 C 94.820312 107.105469 95.5625 105.234375 97.042969 103.769531 C 98.527344 102.304688 100.417969 101.570312 102.722656 101.570312 L 118.527344 101.570312 C 120.832031 101.570312 122.726562 102.304688 124.207031 103.769531 C 125.6875 105.234375 126.429688 107.105469 126.429688 109.382812 L 126.429688 210.941406 C 126.429688 213.21875 125.6875 215.089844 124.207031 216.554688 C 122.726562 218.019531 120.832031 218.753906 118.527344 218.753906 L 102.722656 218.753906 C 100.417969 218.753906 98.527344 218.019531 97.042969 216.554688 C 95.5625 215.089844 94.820312 213.21875 94.820312 210.941406 Z M 102.722656 210.941406 L 118.527344 210.941406 L 118.527344 109.382812 L 102.722656 109.382812 Z M 142.230469 210.941406 L 142.230469 109.382812 C 142.230469 107.105469 142.972656 105.234375 144.453125 103.769531 C 145.9375 102.304688 147.828125 101.570312 150.132812 101.570312 L 165.9375 101.570312 C 168.242188 101.570312 170.136719 102.304688 171.617188 103.769531 C 173.097656 105.234375 173.839844 107.105469 173.839844 109.382812 L 173.839844 210.941406 C 173.839844 213.21875 173.097656 215.089844 171.617188 216.554688 C 170.136719 218.019531 168.242188 218.753906 165.9375 218.753906 L 150.132812 218.753906 C 147.828125 218.753906 145.9375 218.019531 144.453125 216.554688 C 142.972656 215.089844 142.230469 213.21875 142.230469 210.941406 Z M 150.132812 210.941406 L 165.9375 210.941406 L 165.9375 109.382812 L 150.132812 109.382812 Z M 150.132812 210.941406 "/>
</g>
</svg>
